<svg width="12" height="13" viewBox="0 0 12 13" fill="none" xmlns="http://www.w3.org/2000/svg">
<path d="M10.0833 1.74992H9.5V1.16659C9.5 0.845752 9.2375 0.583252 8.91667 0.583252C8.59583 0.583252 8.33333 0.845752 8.33333 1.16659V1.74992H3.66667V1.16659C3.66667 0.845752 3.40417 0.583252 3.08333 0.583252C2.7625 0.583252 2.5 0.845752 2.5 1.16659V1.74992H1.91667C1.26917 1.74992 0.755833 2.27492 0.755833 2.91659L0.75 11.0833C0.75 11.7249 1.26917 12.2499 1.91667 12.2499H10.0833C10.725 12.2499 11.25 11.7249 11.25 11.0833V2.91659C11.25 2.27492 10.725 1.74992 10.0833 1.74992ZM9.5 11.0833H2.5C2.17917 11.0833 1.91667 10.8208 1.91667 10.4999V4.66659H10.0833V10.4999C10.0833 10.8208 9.82083 11.0833 9.5 11.0833ZM3.66667 5.83325H5.41667C5.7375 5.83325 6 6.09575 6 6.41659V8.16659C6 8.48742 5.7375 8.74992 5.41667 8.74992H3.66667C3.34583 8.74992 3.08333 8.48742 3.08333 8.16659V6.41659C3.08333 6.09575 3.34583 5.83325 3.66667 5.83325Z" fill="#7E8EA5"/>
</svg>
